<svg height="20" viewBox="0 0 20 20" width="20" xmlns="http://www.w3.org/2000/svg"><path d="m17.27 7.79c0 1.66-.3 2.64-1.28 4.23-1.01 1.62-2.99 3.21-4.43 3.95l-.46-.89c1.24-.88 2.04-1.57 2.92-3.26.25-.48.39-.9.47-1.28-.19.04-.4.06-.61.06-1.82 0-3.29-1.48-3.29-3.3s1.47-3.3 3.29-3.3c1.51 0 2.79 1.02 3.17 2.42.14.4.22.85.22 1.37z"/><path d="m8.68 7.79c0 1.66-.3 2.64-1.28 4.23-1.01 1.62-2.99 3.21-4.43 3.95l-.46-.89c1.24-.88 2.04-1.57 2.92-3.26.25-.48.39-.9.47-1.28-.19.04-.4.06-.61.06-1.82 0-3.29-1.48-3.29-3.3s1.47-3.3 3.29-3.3c1.51 0 2.79 1.02 3.17 2.42.14.4.22.85.22 1.37z"/></svg>